<?xml version="1.0" encoding="UTF-8"?>
<svg version="1.1" xmlns="http://www.w3.org/2000/svg" width="1610" height="752">
<path d="M0 0 C531.3 0 1062.6 0 1610 0 C1610 248.16 1610 496.32 1610 752 C1078.7 752 547.4 752 0 752 C0 503.84 0 255.68 0 0 Z " fill="#FEFEFE" transform="translate(0,0)"/>
<path d="M0 0 C2.9753133 0.00314464 5.9496148 -0.02030316 8.92480469 -0.0456543 C23.47763754 -0.09481697 37.80137899 0.83871841 51.56542969 6.00317383 C52.25838135 6.25663574 52.95133301 6.51009766 53.6652832 6.77124023 C75.63073037 15.14740412 90.10611567 29.45746181 99.90917969 50.63208008 C105.83047231 64.17066471 106.2700291 78.57266874 106.31542969 93.12817383 C106.32151245 93.86662537 106.32759521 94.6050769 106.3338623 95.36590576 C106.45587436 118.02807316 101.34256399 141.23030218 85.17871094 158.04614258 C84.41945313 158.79508789 83.66019531 159.5440332 82.87792969 160.31567383 C81.84732422 161.36174805 81.84732422 161.36174805 80.79589844 162.42895508 C63.40957775 179.04111678 37.60835822 185.44942311 14.09277344 185.48364258 C13.27402237 185.48697098 12.4552713 185.49029938 11.61170959 185.49372864 C9.88640905 185.49876261 8.16109889 185.50113806 6.43579102 185.50097656 C3.84667123 185.50314763 1.25798913 185.52129869 -1.33105469 185.5402832 C-23.3686976 185.61575503 -42.79087899 182.12916295 -62.12207031 171.31567383 C-63.40210938 170.60797852 -63.40210938 170.60797852 -64.70800781 169.88598633 C-81.65993582 159.54347429 -91.67039284 142.40937963 -96.74707031 123.62817383 C-103.29672645 95.38949243 -102.33164631 63.71418909 -87.12207031 38.31567383 C-84.92777417 35.18641672 -82.58022996 32.23964912 -80.12207031 29.31567383 C-79.20361328 28.10137695 -79.20361328 28.10137695 -78.26660156 26.86254883 C-66.93235389 13.40183938 -49.05053354 6.04327111 -32.16943359 2.72558594 C-30.7649401 2.44438577 -29.3671521 2.12810423 -27.97705078 1.78271484 C-18.76485346 -0.28291146 -9.38985453 -0.02070615 0 0 Z " fill="#919296" transform="translate(1310.1220703125,255.684326171875)"/>
<path d="M0 0 C0.90170425 -0.00386719 1.80340851 -0.00773438 2.73243713 -0.01171875 C17.63094735 -0.00461403 32.88957948 1.65534207 45.04296875 11.07421875 C46.28046875 11.87859375 46.28046875 11.87859375 47.54296875 12.69921875 C55.37810853 20.14260154 58.04720657 29.27610097 58.41796875 39.76171875 C58.18253581 52.00423145 54.40686393 62.06027991 46.04296875 71.07421875 C37.79956365 78.29232471 27.7169623 82.8588616 17.04296875 85.07421875 C17.85378906 85.244375 18.66460937 85.41453125 19.5 85.58984375 C35.92302293 89.1841724 51.9914345 94.73570156 61.73046875 109.26171875 C69.71655964 122.69777706 71.38927686 136.72885708 67.66308594 151.96240234 C63.6053589 165.78103969 54.98609362 175.59829379 42.5078125 182.50390625 C35.93481621 185.48287413 29.03050972 187.32913628 22.04296875 189.07421875 C20.96366089 189.34685547 20.96366089 189.34685547 19.86254883 189.625 C15.94638703 190.24892741 12.10404106 190.21648104 8.14453125 190.20703125 C7.25701172 190.20835052 6.36949219 190.2096698 5.45507812 190.21102905 C2.52600715 190.2129574 -0.4029698 190.20656674 -3.33203125 190.19921875 C-4.83337616 190.1978894 -4.83337616 190.1978894 -6.36505127 190.1965332 C-29.56909237 190.17261293 -52.76156112 189.66824523 -75.95703125 189.07421875 C-75.95703125 187.42421875 -75.95703125 185.77421875 -75.95703125 184.07421875 C-72.37434767 182.92634696 -68.79077471 181.78127682 -65.20703125 180.63671875 C-64.19125 180.31123047 -63.17546875 179.98574219 -62.12890625 179.65039062 C-60.659375 179.18149414 -60.659375 179.18149414 -59.16015625 178.703125 C-58.25942383 178.4151001 -57.35869141 178.1270752 -56.43066406 177.83032227 C-54.29245682 177.17674668 -52.12613869 176.61649561 -49.95703125 176.07421875 C-49.95703125 122.61421875 -49.95703125 69.15421875 -49.95703125 14.07421875 C-52.43203125 13.57921875 -52.43203125 13.57921875 -54.95703125 13.07421875 C-56.42831266 12.64137389 -57.89227189 12.18283017 -59.34765625 11.69921875 C-60.13914063 11.43625 -60.930625 11.17328125 -61.74609375 10.90234375 C-62.55820313 10.6290625 -63.3703125 10.35578125 -64.20703125 10.07421875 C-65.03460938 9.8009375 -65.8621875 9.52765625 -66.71484375 9.24609375 C-67.50117188 8.983125 -68.2875 8.72015625 -69.09765625 8.44921875 C-70.17321777 8.08957031 -70.17321777 8.08957031 -71.27050781 7.72265625 C-72.95703125 7.07421875 -72.95703125 7.07421875 -73.95703125 6.07421875 C-73.99766957 4.4080476 -73.99975225 2.7403378 -73.95703125 1.07421875 C-66.40088537 0.94147601 -58.84470333 0.81097301 -51.28847408 0.68306732 C-47.77701405 0.62356339 -44.26556872 0.56338453 -40.75415039 0.50146484 C-27.170201 0.26244661 -13.58634073 0.03015325 0 0 Z " fill="#7A0333" transform="translate(267.95703125,192.92578125)"/>
<path d="M0 0 C2.04922588 0.02373148 4.09715427 0.02051887 6.14648438 0.01391602 C18.5943525 0.03867674 28.7719012 1.33085178 38.27929688 10.03930664 C46.2705129 18.82173217 46.58597545 28.9760978 46.53344727 40.25244141 C46.53359329 41.09256271 46.53373932 41.93268402 46.53388977 42.79826355 C46.5331999 45.54139906 46.52545141 48.28446442 46.51757812 51.02758789 C46.51571065 52.94286563 46.5142883 54.85814385 46.51329041 56.77342224 C46.50949118 61.78912702 46.49968331 66.80480237 46.48858643 71.82049561 C46.47831626 76.94876711 46.47378082 82.07704342 46.46875 87.20532227 C46.45805849 97.24895491 46.44101357 107.29256582 46.41992188 117.33618164 C47.17614334 117.46813934 47.93236481 117.60009705 48.71150208 117.73605347 C49.70300766 117.91202057 50.69451324 118.08798767 51.71606445 118.26928711 C52.69916092 118.44249481 53.68225739 118.61570251 54.69514465 118.79415894 C57.66661039 119.38525383 60.33005989 120.25363295 63.10742188 121.46118164 C63.93628906 121.81438477 64.76515625 122.16758789 65.61914062 122.53149414 C66.21339844 122.79704102 66.80765625 123.06258789 67.41992188 123.33618164 C67.41992188 124.98618164 67.41992188 126.63618164 67.41992188 128.33618164 C62.72469206 128.76803252 58.02905977 129.19510267 53.33300781 129.61791992 C51.73849003 129.7621428 50.14408582 129.90762761 48.54980469 130.05444336 C46.24638769 130.26633466 43.94258824 130.47354928 41.63867188 130.67993164 C40.93625366 130.74555298 40.23383545 130.81117432 39.51013184 130.87878418 C38.83003052 130.93884644 38.1499292 130.99890869 37.44921875 131.06079102 C36.86297729 131.11408569 36.27673584 131.16738037 35.67272949 131.22229004 C32.25927545 131.39485859 28.83773527 131.33618164 25.41992188 131.33618164 C23.93492187 121.43618164 23.93492187 121.43618164 22.41992188 111.33618164 C21.45054687 112.84180664 20.48117187 114.34743164 19.48242188 115.89868164 C13.05526772 125.02317559 4.87355511 130.2438372 -5.93164062 132.91821289 C-17.62068197 134.7629436 -27.69151427 133.29072756 -37.95507812 127.39868164 C-45.45477002 121.50606658 -51.57927501 114.70967854 -52.90087891 104.97265625 C-53.05313051 102.46050478 -53.09898411 99.97783115 -53.08007812 97.46118164 C-53.07435791 96.57785156 -53.0686377 95.69452148 -53.06274414 94.78442383 C-52.87545235 87.9561561 -51.77265992 82.87294996 -47.58007812 77.33618164 C-47.08378906 76.6362207 -46.5875 75.93625977 -46.07617188 75.21508789 C-36.31812461 62.7765168 -19.27542459 56.57466667 -4.02685547 54.55004883 C5.07222017 53.75471953 14.29877247 54.12506898 23.41992188 54.33618164 C23.39689784 49.87674286 23.31927804 45.41979792 23.23242188 40.96118164 C23.22662109 39.70950195 23.22082031 38.45782227 23.21484375 37.16821289 C23.0017731 28.12454738 21.80192953 20.59995638 15.10351562 14.08227539 C13.99169922 13.43452148 13.99169922 13.43452148 12.85742188 12.77368164 C12.11363281 12.31864258 11.36984375 11.86360352 10.60351562 11.39477539 C4.40322186 8.38890846 -3.28388292 8.36561262 -9.93164062 9.86743164 C-11.90515035 10.56844668 -13.72064514 11.3749849 -15.58007812 12.33618164 C-16.59070313 12.85180664 -17.60132813 13.36743164 -18.64257812 13.89868164 C-25.38914357 19.49689552 -29.55619104 27.65927264 -33.58007812 35.33618164 C-38.45080595 30.7698743 -42.47164211 25.58641625 -46.58007812 20.33618164 C-43.44619878 12.68883475 -34.51347763 7.71893223 -27.26123047 4.45043945 C-18.25782418 0.70872152 -9.67774635 -0.11969355 0 0 Z " fill="#7B0635" transform="translate(403.580078125,253.663818359375)"/>
<path d="M0 0 C1.28970703 -0.02449219 2.57941406 -0.04898438 3.90820312 -0.07421875 C15.77509234 -0.11023359 27.09969402 2.25556679 36.1875 10.375 C41.94032378 17.42502914 43.49086288 24.60052477 43.41455078 33.50146484 C43.41484283 34.39966949 43.41513489 35.29787415 43.41543579 36.22329712 C43.41404793 39.17761053 43.39851232 42.13166841 43.3828125 45.0859375 C43.37908044 47.14002342 43.37623438 49.19411112 43.37423706 51.24819946 C43.36661583 56.64374746 43.34698027 62.03918708 43.3248291 67.43469238 C43.30433816 72.94472793 43.2952284 78.45478105 43.28515625 83.96484375 C43.26373298 94.76827667 43.22961524 105.57162931 43.1875 116.375 C44.78426701 116.8564774 46.38122846 117.33731 47.97827148 117.81787109 C48.86755844 118.08570404 49.7568454 118.35353699 50.67308044 118.62948608 C54.43881817 119.74601012 58.23501888 120.73522232 62.03515625 121.7265625 C64.1875 122.375 64.1875 122.375 65.1875 123.375 C65.22813832 125.04117115 65.230221 126.70888095 65.1875 128.375 C60.51063444 128.80745384 55.83331533 129.23448696 51.15551758 129.65673828 C49.56782024 129.80079607 47.98025108 129.94627452 46.39282227 130.09326172 C30.15854742 131.59463851 30.15854742 131.59463851 22.1875 131.375 C21.24895994 124.33594956 21.07941968 117.47227428 21.1875 110.375 C20.5275 110.375 19.8675 110.375 19.1875 110.375 C18.9090625 111.365 18.9090625 111.365 18.625 112.375 C14.47429619 121.03733839 6.90810722 126.98274607 -1.8203125 130.6328125 C-14.23569862 134.91088531 -25.71096349 134.56824216 -37.8125 129.375 C-47.41837735 123.85045664 -52.3879887 115.64853389 -55.8125 105.375 C-56.66663341 93.03907314 -55.91089807 83.88845332 -47.625 74.125 C-43.41701732 69.73853844 -39.12124152 66.32135154 -33.8125 63.375 C-33.0390625 62.93542969 -32.265625 62.49585938 -31.46875 62.04296875 C-15.30696972 53.78749148 2.47624727 53.78379115 20.1875 54.375 C20.10610224 49.87428861 19.99330044 45.37488071 19.875 40.875 C19.85244141 39.6065625 19.82988281 38.338125 19.80664062 37.03125 C19.55336518 26.00666449 19.55336518 26.00666449 14.609375 16.38671875 C6.29374137 9.80027061 -0.20517117 8.44060751 -10.8125 9.375 C-17.40696936 10.59905702 -22.50534129 14.32923411 -26.8125 19.375 C-30.22207891 24.46169078 -33.07666482 29.90332963 -35.8125 35.375 C-39.0246038 34.30429873 -39.54415464 33.784251 -41.51171875 31.21484375 C-41.99833984 30.58642578 -42.48496094 29.95800781 -42.98632812 29.31054688 C-43.48583984 28.65119141 -43.98535156 27.99183594 -44.5 27.3125 C-45.01111328 26.64927734 -45.52222656 25.98605469 -46.04882812 25.30273438 C-47.30959409 23.6649169 -48.56186784 22.02056863 -49.8125 20.375 C-37.05369678 3.922859 -19.87168434 0.01968468 0 0 Z " fill="#7B0534" transform="translate(869.8125,253.625)"/>
<path d="M0 0 C0.80373047 -0.01224609 1.60746094 -0.02449219 2.43554688 -0.03710938 C15.07526851 -0.06761554 27.62052863 4.09020377 37.0625 12.75 C49.98522412 27.09005515 52.6875 43.40617617 52.6875 62.1875 C23.6475 62.1875 -5.3925 62.1875 -35.3125 62.1875 C-34.50174921 92.02184982 -34.50174921 92.02184982 -19.37109375 116.6875 C-9.63674414 123.78046063 0.95861322 125.06778643 12.6875 124.1875 C24.90457724 121.57382211 34.99664991 115.15584281 44.375 107.140625 C46.6875 105.1875 46.6875 105.1875 49.6875 103.1875 C51.3375 105.1675 52.9875 107.1475 54.6875 109.1875 C44.29087583 120.17916148 34.54010522 128.84092877 19.6875 133.1875 C18.9346875 133.41308594 18.181875 133.63867188 17.40625 133.87109375 C-0.00166957 138.19326556 -20.01223349 135.31055373 -35.3828125 126.20703125 C-48.33498615 117.27866621 -55.47059209 104.20403894 -58.83984375 89.03125 C-62.57621451 66.55126722 -61.37532147 43.20502279 -48.3203125 23.8203125 C-39.13066669 11.77007655 -27.44392038 3.81050981 -12.56640625 0.59375 C-8.36323618 0.06898447 -4.23182008 0.00334531 0 0 Z " fill="#7A0433" transform="translate(748.3125,252.8125)"/>
<path d="M0 0 C0.90907104 0.00197388 1.81814209 0.00394775 2.75476074 0.00598145 C4.96282328 0.01106413 7.17085741 0.01820921 9.37890625 0.02734375 C9.3869931 1.11569519 9.39507996 2.20404663 9.40341187 3.32537842 C9.48117154 13.62304197 9.56898406 23.92057822 9.66643333 34.2180748 C9.7162056 39.51107962 9.76253615 44.80406631 9.80078125 50.09716797 C9.8378764 55.21308361 9.88429949 60.32884008 9.93696976 65.44461823 C9.9553858 67.38843216 9.97053999 69.33228004 9.98225021 71.27614594 C9.76211241 95.14286332 9.76211241 95.14286332 20.76171875 115.5859375 C25.79690631 120.07382207 31.18560656 120.46137984 37.62109375 120.2421875 C48.27243054 119.41240914 57.45841544 115.53576426 64.87890625 107.65234375 C74.3917579 95.965126 73.67968448 80.04889334 73.79296875 65.6640625 C73.81173112 64.13563553 73.83130806 62.60721836 73.85165405 61.07881165 C73.90244704 57.10224252 73.94235128 53.12563999 73.97979736 49.14892578 C74.02017309 45.07251082 74.0711102 40.99622835 74.12109375 36.91992188 C74.21722525 28.95582051 74.30182564 20.9916522 74.37890625 13.02734375 C73.56776367 12.83035889 72.75662109 12.63337402 71.92089844 12.43041992 C70.31456543 12.03560425 70.31456543 12.03560425 68.67578125 11.6328125 C67.61713867 11.37395264 66.55849609 11.11509277 65.46777344 10.84838867 C61.63782664 9.83035903 58.05094521 8.51028256 54.37890625 7.02734375 C54.37890625 5.37734375 54.37890625 3.72734375 54.37890625 2.02734375 C58.25213865 1.73590181 62.12582386 1.45147382 66 1.17285156 C67.94687117 1.03148519 69.89336567 0.88496086 71.83984375 0.73828125 C73.73476562 0.60292969 73.73476562 0.60292969 75.66796875 0.46484375 C76.80959473 0.38105469 77.9512207 0.29726563 79.12744141 0.2109375 C85.20590581 -0.05155275 91.29477684 0.02734375 97.37890625 0.02734375 C97.70890625 37.64734375 98.03890625 75.26734375 98.37890625 114.02734375 C105.30890625 115.67734375 112.23890625 117.32734375 119.37890625 119.02734375 C119.37890625 120.67734375 119.37890625 122.32734375 119.37890625 124.02734375 C115.18422802 124.58234025 110.98906729 125.13350138 106.79345703 125.68139648 C105.37177549 125.86756525 103.95022124 126.05470916 102.52880859 126.24291992 C93.82424174 127.39472393 85.13843641 128.37518437 76.37890625 129.02734375 C75.38890625 120.11734375 75.38890625 120.11734375 74.37890625 111.02734375 C72.52265625 112.79078125 72.52265625 112.79078125 70.62890625 114.58984375 C54.98985675 128.48027512 38.57327893 131.15014765 18.37890625 130.02734375 C7.698566 128.53020996 0.04913903 123.64939169 -6.859375 115.4921875 C-12.8871627 107.05863088 -13.78309728 97.73914192 -13.73461914 87.61352539 C-13.73476517 86.80295685 -13.73491119 85.99238831 -13.73506165 85.15725708 C-13.73436969 82.50064336 -13.72661114 79.84410135 -13.71875 77.1875 C-13.71688327 75.33662454 -13.71546057 73.48574857 -13.71446228 71.63487244 C-13.71065719 66.78024922 -13.70084417 61.92565625 -13.6897583 57.07104492 C-13.67950089 52.11051849 -13.6749554 47.14998713 -13.66992188 42.18945312 C-13.65922 32.46873676 -13.64216784 22.74804278 -13.62109375 13.02734375 C-14.35497314 12.83615967 -15.08885254 12.64497559 -15.8449707 12.44799805 C-16.81909912 12.18929932 -17.79322754 11.93060059 -18.796875 11.6640625 C-19.75762939 11.41100342 -20.71838379 11.15794434 -21.70825195 10.8972168 C-25.86285896 9.65651067 -29.7282302 7.92090948 -33.62109375 6.02734375 C-33.62109375 4.70734375 -33.62109375 3.38734375 -33.62109375 2.02734375 C-29.29243068 1.01929893 -24.98348625 0.69929284 -20.55859375 0.46484375 C-19.45759338 0.40605042 -19.45759338 0.40605042 -18.33435059 0.34606934 C-12.21850173 0.05054563 -6.12225935 -0.02577734 0 0 Z " fill="#7A0332" transform="translate(957.62109375,255.97265625)"/>
<path d="M0 0 C1.38063903 -0.01140891 2.76123796 -0.03168041 4.14160156 -0.06152344 C16.892888 -0.33652106 29.91806721 1.00518203 40.22265625 9.29516602 C41.16044922 10.04926758 41.16044922 10.04926758 42.1171875 10.81860352 C47.70166429 15.82699744 50.6536097 21.83484523 51.60449219 29.28808594 C51.75766342 32.46688959 51.7689389 35.61323368 51.72265625 38.79516602 C51.74585938 40.39038086 51.74585938 40.39038086 51.76953125 42.01782227 C51.72840974 50.39632973 50.15264442 57.18157866 45.25 64.06469727 C32.78958742 76.24562395 18.56259452 77.65138003 1.78515625 77.60766602 C0.55216797 77.6237793 -0.68082031 77.63989258 -1.95117188 77.65649414 C-15.70649304 77.66376055 -27.69475662 75.03148757 -38.08984375 65.67016602 C-45.50780291 57.6007294 -46.12103794 49.24425802 -46.21484375 38.67016602 C-46.22515625 37.69233154 -46.23546875 36.71449707 -46.24609375 35.70703125 C-46.13681469 26.72869425 -44.34392735 17.84665402 -37.77734375 11.29516602 C-31.29359246 6.24642915 -24.75176311 3.14307068 -16.77734375 1.29516602 C-15.92619995 1.03932739 -15.92619995 1.03932739 -15.05786133 0.77832031 C-10.14457841 -0.26261609 -5.00844576 0.02866984 0 0 Z " fill="#FEFEFE" transform="translate(1310.77734375,309.704833984375)"/>
<path d="M0 0 C11.08806626 4.2504254 18.51773401 9.76281507 24.28125 20.2578125 C28.6235635 31.76583677 29.17846879 46.54362884 25.28125 58.2578125 C25.04792969 59.051875 24.81460938 59.8459375 24.57421875 60.6640625 C20.57176457 72.50694062 11.70212039 79.5473773 0.90625 84.9453125 C-13.03795341 89.9940758 -27.59231224 89.30292005 -41.71875 85.2578125 C-43.50732062 83.46924188 -42.83865579 81.05658116 -42.84317017 78.67572021 C-42.83957489 77.87515198 -42.83597961 77.07458374 -42.83227539 76.24975586 C-42.83242142 75.41080276 -42.83256744 74.57184967 -42.8327179 73.70747375 C-42.8320185 70.92084206 -42.82422485 68.13427634 -42.81640625 65.34765625 C-42.81454217 63.42094459 -42.81311822 61.49423245 -42.81211853 59.56752014 C-42.80829259 54.48593853 -42.79846166 49.4043853 -42.78741455 44.32281494 C-42.77720206 39.14164616 -42.77262126 33.96047281 -42.76757812 28.77929688 C-42.75683946 18.60545625 -42.73976213 8.43163673 -42.71875 -1.7421875 C-32.08532935 -7.05889783 -11.19169762 -3.41968538 0 0 Z " fill="#FDFCFD" transform="translate(283.71875,287.7421875)"/>
<path d="M0 0 C1.32 5.94 2.64 11.88 4 18 C4.99 16.80375 5.98 15.6075 7 14.375 C13.14717024 7.35853296 20.57979409 1.47717122 30 0 C39.51833787 -0.58295041 47.53073026 -0.92757512 56 4 C55.40421223 9.26621606 54.18691204 13.94408019 52.4375 18.9375 C52.20353516 19.62134766 51.96957031 20.30519531 51.72851562 21.00976562 C51.15788171 22.67508501 50.57972902 24.33782493 50 26 C45.94771699 24.649239 44.45431203 22.16180298 41.81640625 18.91015625 C38.87600149 15.81798866 36.86391463 15.10351051 32.609375 14.59375 C22.88033605 14.34994906 22.88033605 14.34994906 14.61328125 19.1015625 C4.66735281 30.80548798 4.41006134 45.07564286 4.609375 59.65234375 C4.6168594 61.28999633 4.62254189 62.92765803 4.62652588 64.56532288 C4.64160962 68.82166412 4.68073617 73.07743662 4.7253418 77.33355713 C4.76667311 81.69820467 4.7846167 86.06294646 4.8046875 90.42773438 C4.84725259 98.95210969 4.9174546 107.47591802 5 116 C17.375 119.465 17.375 119.465 30 123 C30 124.65 30 126.3 30 128 C7.56 128 -14.88 128 -38 128 C-38 126.35 -38 124.7 -38 123 C-35.39869373 121.8265684 -32.79431492 120.66107492 -30.1875 119.5 C-29.44951172 119.16613281 -28.71152344 118.83226562 -27.95117188 118.48828125 C-27.23896484 118.17246094 -26.52675781 117.85664063 -25.79296875 117.53125 C-25.1383667 117.23798828 -24.48376465 116.94472656 -23.80932617 116.64257812 C-22 116 -22 116 -19 116 C-19 82.67 -19 49.34 -19 15 C-22.3 14.34 -25.6 13.68 -29 13 C-30.88461119 12.49278365 -32.76311615 11.96016349 -34.625 11.375 C-35.46289062 11.11460937 -36.30078125 10.85421875 -37.1640625 10.5859375 C-37.76992188 10.39257812 -38.37578125 10.19921875 -39 10 C-39 8.35 -39 6.7 -39 5 C-33.92834246 4.28530723 -28.85631858 3.57329499 -23.78393555 2.86376953 C-22.05824605 2.62199451 -20.33265916 2.37948596 -18.60717773 2.13623047 C-16.12770744 1.78680843 -13.64788072 1.44002172 -11.16796875 1.09375 C-10.01001045 0.92969666 -10.01001045 0.92969666 -8.82865906 0.7623291 C-5.85837154 0.34965943 -3.00300471 0 0 0 Z " fill="#7B0635" transform="translate(522,254)"/>
<path d="M0 0 C0.33 16.17 0.66 32.34 1 49 C3.475 46.03 3.475 46.03 6 43 C12.27485103 38.49559638 19.52971641 38.03577826 27 39 C35.25740177 41.17177796 41.44985228 45.026487 45.8125 52.5 C50.6535179 61.39869956 50.14714007 73.50470688 48.421875 83.2734375 C45.94310741 91.13789103 40.71020469 97.89631155 33.8125 102.44140625 C31.89614954 103.42498764 30.01620997 104.24597026 28 105 C27.24332031 105.35578125 26.48664062 105.7115625 25.70703125 106.078125 C13.97102614 110.07480207 -0.93870171 106.14798686 -12 102 C-12 70.65 -12 39.3 -12 7 C-15.63 6.34 -19.26 5.68 -23 5 C-23 4.01 -23 3.02 -23 2 C-21.04341993 1.65652513 -19.08459329 1.32584461 -17.125 1 C-15.48917969 0.7215625 -15.48917969 0.7215625 -13.8203125 0.4375 C-9.24116325 -0.08690155 -4.60907853 0 0 0 Z " fill="#949599" transform="translate(879,428)"/>
<path d="M0 0 C0.57363281 0.46019531 1.14726563 0.92039062 1.73828125 1.39453125 C-0.17899055 8.9038458 -2.5022089 16.15256884 -5.26171875 23.39453125 C-5.77734375 22.69328125 -6.29296875 21.99203125 -6.82421875 21.26953125 C-11.21120144 16.09514141 -15.32811446 11.74440711 -22.3359375 11.12109375 C-31.53386354 10.76228486 -31.53386354 10.76228486 -39.5859375 14.61328125 C-50.84398469 26.57987686 -50.72597763 44.59137166 -50.5546875 60.05078125 C-50.54907091 61.57490616 -50.54481062 63.09903661 -50.54182434 64.62316895 C-50.53053744 68.57525405 -50.5012163 72.52699205 -50.4677124 76.47894287 C-50.43665637 80.53539335 -50.42324425 84.59190162 -50.40820312 88.6484375 C-50.37632537 96.56397674 -50.32369656 104.47917043 -50.26171875 112.39453125 C-37.88671875 115.85953125 -37.88671875 115.85953125 -25.26171875 119.39453125 C-25.26171875 121.04453125 -25.26171875 122.69453125 -25.26171875 124.39453125 C-47.70171875 124.39453125 -70.14171875 124.39453125 -93.26171875 124.39453125 C-93.26171875 122.74453125 -93.26171875 121.09453125 -93.26171875 119.39453125 C-90.49346687 118.22139099 -87.72243389 117.0558291 -84.94921875 115.89453125 C-84.16353516 115.56066406 -83.37785156 115.22679687 -82.56835938 114.8828125 C-81.81103516 114.56699219 -81.05371094 114.25117188 -80.2734375 113.92578125 C-79.57694092 113.63251953 -78.88044434 113.33925781 -78.1628418 113.03710938 C-76.26171875 112.39453125 -76.26171875 112.39453125 -73.26171875 112.39453125 C-73.26171875 79.06453125 -73.26171875 45.73453125 -73.26171875 11.39453125 C-79.20171875 10.40453125 -79.20171875 10.40453125 -85.26171875 9.39453125 C-88.28259798 8.4594972 -91.29273115 7.48316004 -94.26171875 6.39453125 C-94.26171875 4.74453125 -94.26171875 3.09453125 -94.26171875 1.39453125 C-89.04762664 0.67990756 -83.83318743 -0.03210693 -78.6184082 -0.74169922 C-76.84422157 -0.98349361 -75.07013215 -1.22600239 -73.29614258 -1.46923828 C-70.7471596 -1.81860937 -68.1978388 -2.16541511 -65.6484375 -2.51171875 C-64.45766853 -2.67577209 -64.45766853 -2.67577209 -63.24284363 -2.84313965 C-60.22407665 -3.25120595 -57.31190681 -3.60546875 -54.26171875 -3.60546875 C-53.08877986 2.77238645 -51.96641037 8.89774687 -52.26171875 15.39453125 C-51.60171875 15.39453125 -50.94171875 15.39453125 -50.26171875 15.39453125 C-50.01421875 14.82605469 -49.76671875 14.25757813 -49.51171875 13.671875 C-44.74230215 4.98259413 -36.14833934 -0.398963 -26.9453125 -3.34765625 C-17.74007039 -5.68498729 -8.00764358 -5.68418223 0 0 Z " fill="#7A0333" transform="translate(685.26171875,257.60546875)"/>
<path d="M0 0 C1.56234375 -0.01836914 1.56234375 -0.01836914 3.15625 -0.03710938 C12.84367464 -0.05545677 22.44116047 1.19473375 29.91796875 7.91015625 C37.01477918 15.5214476 39.71601593 23.16818528 39.5 33.5 C39.48936523 34.41918213 39.47873047 35.33836426 39.46777344 36.28540039 C39.18199058 46.54373889 36.89183461 56.22032224 29.47265625 63.734375 C15.37135878 76.65257041 -1.10733941 74.1875 -20 74.1875 C-20 50.0975 -20 26.0075 -20 1.1875 C-13.18274037 0.33534255 -6.82880554 0.00422575 0 0 Z " fill="#FDFCFD" transform="translate(261,201.8125)"/>
<path d="M0 0 C0.83254807 -0.00807175 1.66509613 -0.01614349 2.52287292 -0.02445984 C4.28907173 -0.03831728 6.0552975 -0.04903198 7.8215332 -0.05688477 C10.52151431 -0.0740821 13.2202662 -0.11794979 15.91992188 -0.16210938 C17.63410556 -0.1722373 19.34829968 -0.18075309 21.0625 -0.1875 C21.86992142 -0.20500809 22.67734283 -0.22251617 23.50923157 -0.24055481 C26.95908247 -0.22722677 29.23589375 -0.10076924 32.11938477 1.87597656 C34.0211471 4.6644979 35.08770437 7.26264386 36.17578125 10.4609375 C36.49278488 11.37464363 36.49278488 11.37464363 36.81619263 12.30680847 C37.26975515 13.61796554 37.71811503 14.9309318 38.16174316 16.2454834 C39.10545459 19.04141324 40.07431626 21.82841111 41.04199219 24.61611938 C41.53934495 26.04941929 42.03542944 27.48315989 42.53027344 28.91732788 C44.91311621 35.81238521 47.43050589 42.65317661 49.98046875 49.48828125 C50.38837646 50.58865723 50.79628418 51.6890332 51.21655273 52.82275391 C53.09831893 57.89288838 55.00040721 62.95373563 56.9453125 68 C57.44853027 69.32112793 57.44853027 69.32112793 57.96191406 70.66894531 C58.57829709 72.28514065 59.20331798 73.89808095 59.83886719 75.50683594 C61.24784136 79.22047715 61.94227704 81.44857885 60.73046875 85.23828125 C55.23123126 85.31239496 49.73228396 85.36686589 44.23266602 85.40307617 C42.36152076 85.41816998 40.49041092 85.43864714 38.61938477 85.46459961 C35.93106349 85.50095718 33.24320962 85.5180014 30.5546875 85.53125 C29.2982972 85.55447578 29.2982972 85.55447578 28.01652527 85.57817078 C22.16089669 85.57987059 22.16089669 85.57987059 20.07910156 83.92774963 C17.88449114 81.17850248 16.85892755 77.9271975 15.65625 74.66015625 C15.37112549 73.90472031 15.08600098 73.14928436 14.79223633 72.37095642 C13.86744389 69.91311004 12.95489338 67.4509278 12.04296875 64.98828125 C11.41145718 63.30038525 10.77953849 61.61264151 10.1472168 59.92504883 C6.03666525 48.91976345 2.06004889 37.87398221 -1.71875 26.75 C-3.42251195 21.74357733 -5.2417497 16.78870214 -7.21875 11.8828125 C-8.68879602 8.23492052 -9.75526742 5.24560469 -9.26953125 1.23828125 C-7.20391474 -0.82733526 -2.84517134 0.02583558 0 0 Z " fill="#929396" transform="translate(1304.26953125,446.76171875)"/>
<path d="M0 0 C8.72773712 6.19197566 15.20710104 16.00446137 17.3125 26.640625 C18.45430385 44.22755409 19.04926335 61.40076046 7.3125 75.640625 C5.0711783 78.08223502 2.73296634 80.37839738 0.3125 82.640625 C-0.69093836 83.63717477 -1.69202141 84.63612394 -2.6875 85.640625 C-2.1402124 85.89658447 -1.5929248 86.15254395 -1.02905273 86.41625977 C1.71039143 87.84867687 4.21191237 89.50506699 6.77734375 91.23046875 C7.82470703 91.93236328 8.87207031 92.63425781 9.95117188 93.35742188 C11.03978516 94.09025391 12.12839844 94.82308594 13.25 95.578125 C15.40423471 97.02580145 17.55915813 98.47245369 19.71484375 99.91796875 C20.66866943 100.55984131 21.62249512 101.20171387 22.60522461 101.86303711 C24.41833654 103.05352029 26.27320434 104.18257977 28.16235352 105.24829102 C28.87190186 105.70776123 29.5814502 106.16723145 30.3125 106.640625 C30.3125 107.300625 30.3125 107.960625 30.3125 108.640625 C28.921875 109.96484375 28.921875 109.96484375 27.0625 111.328125 C26.45921875 111.78574219 25.8559375 112.24335937 25.234375 112.71484375 C23.3125 113.640625 23.3125 113.640625 21.46875 113.6171875 C18.17708747 112.12639831 15.71718196 109.72515435 13.0625 107.328125 C7.77640959 102.72436063 2.47308235 98.14630302 -3 93.765625 C-3.63260742 93.22381592 -4.26521484 92.68200684 -4.91699219 92.1237793 C-8.51711146 89.29604957 -8.51711146 89.29604957 -12.92993164 88.76147461 C-14.47566641 89.12199917 -16.01039172 89.53331697 -17.52954102 89.99316406 C-28.01276142 93.13848599 -40.8951553 90.2813883 -50.4375 85.453125 C-61.03100056 78.99741128 -67.47332135 69.31629143 -70.5625 57.390625 C-73.45740072 41.57330601 -73.93992599 24.95854394 -65.04296875 11.07421875 C-49.89747148 -9.67818947 -21.38038504 -13.76362287 0 0 Z M-49.6015625 6.98046875 C-56.94565624 18.13074807 -57.93346617 28.22651705 -58.0625 41.265625 C-58.07659912 42.31443848 -58.09069824 43.36325195 -58.10522461 44.44384766 C-58.0298989 56.59321652 -55.00019579 68.47839458 -46.80078125 77.78125 C-39.87151557 84.26127056 -33.15818621 86.32467391 -23.71484375 86.05078125 C-16.36366332 85.05481487 -10.1858124 81.12246298 -5.21484375 75.70703125 C4.71231574 62.2761684 6.07244793 44.46976055 3.7734375 28.43359375 C1.8268135 17.70577028 -1.33858372 8.99484618 -9.6875 1.640625 C-22.97317958 -6.14675813 -39.35927208 -5.54020872 -49.6015625 6.98046875 Z " fill="#949498" transform="translate(700.6875,444.359375)"/>
<path d="M0 0 C0.51255623 39.12512547 0.51255623 39.12512547 -10 51 C-18.53727226 58.0315805 -26.03178484 59.86662441 -37 59 C-42.15898279 57.84149158 -45.66843551 55.05190275 -49 51 C-54.30508278 41.87239967 -55.56075817 32.45585112 -53.38671875 22.0703125 C-50.69480691 14.45706403 -45.37580683 8.66864552 -38.375 4.6875 C-26.00189384 -0.6869187 -13.19387757 -0.358385 0 0 Z " fill="#FDFBFC" transform="translate(891,316)"/>
<path d="M0 0 C0.67846879 39.70608142 0.67846879 39.70608142 -9.046875 50.2109375 C-17.03837205 57.84419503 -23.63171881 59.66566799 -34.6484375 59.41796875 C-40.74267405 58.65796489 -44.14069287 55.90955868 -48.3125 51.625 C-52.39097568 45.2807045 -53.55935924 40.12818129 -53.5 32.6875 C-53.49355469 31.84735352 -53.48710937 31.00720703 -53.48046875 30.14160156 C-53.21851882 21.24564421 -50.73502256 15.35211112 -44.3125 9.125 C-31.56870964 -1.01752978 -15.40079144 -0.28726865 0 0 Z " fill="#FDFCFC" transform="translate(427,316)"/>
<path d="M0 0 C9.33173231 6.89206373 11.87866484 18.11527935 13.78515625 28.9296875 C14.26844111 33.22413978 14.23046875 37.56515831 14.23046875 41.88671875 C-6.88953125 41.88671875 -28.00953125 41.88671875 -49.76953125 41.88671875 C-46.49806366 24.43889162 -43.26705898 10.60228272 -28.76953125 -0.11328125 C-19.75963675 -6.11987759 -9.09336105 -5.72098874 0 0 Z " fill="#FCFBFB" transform="translate(762.76953125,264.11328125)"/>
<path d="M0 0 C5.66312311 5.0299047 9.05592366 11.4473893 10 19 C10.0777346 21.33203812 10.08967728 23.66839059 10 26 C9 27 9 27 7.24729919 27.12025452 C6.48562943 27.11803391 5.72395966 27.11581329 4.93920898 27.11352539 C4.07839218 27.11344986 3.21757538 27.11337433 2.33067322 27.11329651 C1.39526199 27.10813522 0.45985077 27.10297394 -0.50390625 27.09765625 C-1.45692123 27.0962413 -2.40993622 27.09482635 -3.39183044 27.09336853 C-6.44875165 27.08775152 -9.50560077 27.07519616 -12.5625 27.0625 C-14.62955624 27.05748719 -16.69661362 27.05292391 -18.76367188 27.04882812 C-23.84247588 27.03777656 -28.9212257 27.02050055 -34 27 C-33.74256727 29.52284073 -33.46948683 32.04238144 -33.1875 34.5625 C-33.11724609 35.26697266 -33.04699219 35.97144531 -32.97460938 36.69726562 C-32.40394271 41.65065227 -31.1242037 45.48955172 -29 50 C-28.67 50.99 -28.34 51.98 -28 53 C-26.21771064 54.14209817 -26.21771064 54.14209817 -24 55 C-23.29875 55.37125 -22.5975 55.7425 -21.875 56.125 C-13.43050948 58.69506233 -7.31895872 56.70225284 0.3359375 52.703125 C2.94544194 51.03487876 4.91246126 49.27551616 7 47 C8.32 47.66 9.64 48.32 11 49 C5.58641145 56.11558798 -0.30725106 60.59359267 -9 63 C-19.90727905 64.04225111 -28.13115118 62.76492188 -37.3125 56.875 C-45.56848759 48.04301327 -47.62313562 36.74474865 -47.30078125 25.0078125 C-46.7555755 15.4812956 -42.93573896 8.89969662 -36.375 2.1015625 C-26.07441444 -7.01310038 -11.25118817 -7.83635386 0 0 Z " fill="#96969A" transform="translate(986,472)"/>
<path d="M0 0 C1.010625 0.515625 2.02125 1.03125 3.0625 1.5625 C8.33108883 5.93430775 12.18795454 12.13105077 13 19 C13 22.3 13 25.6 13 29 C-1.52 29 -16.04 29 -31 29 C-29.99761883 43.94544814 -29.99761883 43.94544814 -22.5 55.375 C-16.91525059 59.00508711 -12.66010884 60.05542708 -6 59 C0.43969696 56.50825796 6.40919846 53.03780111 12 49 C12.66 49.99 13.32 50.98 14 52 C9.49578255 58.6584084 2.69760271 62.93780273 -5 65 C-16.31589775 66.0812969 -25.36384437 64.92221912 -34.375 57.8125 C-39.62846323 52.88804153 -42.58159485 46.03817506 -43.17700195 38.86865234 C-43.53818916 25.41406913 -43.56582845 14.97468144 -33.859375 4.6875 C-24.65117854 -3.66951864 -10.99463645 -6.15699641 0 0 Z " fill="#95969A" transform="translate(844,470)"/>
<path d="M0 0 C3 1 3 1 3.97973633 2.89501953 C4.40162231 4.12647705 4.40162231 4.12647705 4.83203125 5.3828125 C5.15260498 6.29546875 5.47317871 7.208125 5.8034668 8.1484375 C6.13644775 9.13070313 6.46942871 10.11296875 6.8125 11.125 C7.52149582 13.14911867 8.23244026 15.17255581 8.9453125 17.1953125 C9.29368164 18.18950195 9.64205078 19.18369141 10.00097656 20.20800781 C11.30348761 23.84816332 12.72685565 27.42028612 14.1875 31 C15.12674535 33.33263132 16.06427842 35.66595291 17 38 C17.37415039 38.928125 17.37415039 38.928125 17.75585938 39.875 C18.50044705 41.74316855 19.21926605 43.62154198 19.9375 45.5 C20.35902344 46.5828125 20.78054688 47.665625 21.21484375 48.78125 C22.70198791 54.8778012 20.83575551 60.04223123 18.625 65.75 C17.99464844 67.41289063 17.99464844 67.41289063 17.3515625 69.109375 C16.08021973 71.8284318 15.28510184 73.14877905 13 75 C10.05815259 75.26167679 7.3326279 75.34873921 4.39453125 75.29296875 C3.55532639 75.28872391 2.71612152 75.28447906 1.85148621 75.28010559 C-0.82850245 75.26331464 -3.5077387 75.2256623 -6.1875 75.1875 C-8.00454643 75.17245367 -9.82160465 75.15876518 -11.63867188 75.14648438 C-16.09273776 75.11340982 -20.54624132 75.06162513 -25 75 C-26.23937318 71.4754568 -25.75482704 69.46723746 -24.50878906 65.99121094 C-24.15802307 64.99627625 -23.80725708 64.00134155 -23.44586182 62.97625732 C-23.05638367 61.90643616 -22.66690552 60.83661499 -22.265625 59.734375 C-21.87179626 58.62700989 -21.47796753 57.51964478 -21.07220459 56.37872314 C-19.8081344 52.83214971 -18.52921105 49.29113682 -17.25 45.75 C-16.40267984 43.37925128 -15.55631431 41.00816114 -14.7109375 38.63671875 C-6.05350198 14.39751822 -6.05350198 14.39751822 -2.3125 5.5 C-1.87550781 4.4584375 -1.43851563 3.416875 -0.98828125 2.34375 C-0.66214844 1.5703125 -0.33601563 0.796875 0 0 Z " fill="#929397" transform="translate(1287,457)"/>
<path d="M0 0 C5.40628517 2.70314258 8.99293594 6.25412031 11.0859375 11.9609375 C12.4481358 17.01440279 12.36824931 22.11109313 12.375 27.3125 C12.39949219 28.29412109 12.42398438 29.27574219 12.44921875 30.28710938 C12.48612404 39.58109034 10.10798028 47.7217909 3.625 54.59375 C-0.83811811 58.45606375 -5.83303811 59.6018087 -11.58203125 59.43359375 C-16.16615371 58.6115621 -21.65291549 56.34708451 -25 53 C-25.24506257 49.06823104 -25.22867104 45.1323658 -25.24023438 41.19360352 C-25.2497748 39.2337619 -25.28087745 37.27406283 -25.3125 35.31445312 C-25.36004782 23.64740572 -24.4905463 12.67829794 -16 4 C-11.08109613 -0.47173079 -6.39576912 -1.03123965 0 0 Z " fill="#FDFDFD" transform="translate(903,472)"/>
<path d="M0 0 C1.16313721 0.00451172 2.32627441 0.00902344 3.5246582 0.01367188 C4.40726318 0.01947266 5.28986816 0.02527344 6.19921875 0.03125 C6.21134903 0.8502478 6.21134903 0.8502478 6.22372437 1.68579102 C6.3101478 7.3967111 6.40966529 13.10729907 6.51660156 18.81787109 C6.55475518 20.9457438 6.58963121 23.073678 6.62109375 25.20166016 C6.66704107 28.27007955 6.72498563 31.33808047 6.78515625 34.40625 C6.79670746 35.34927979 6.80825867 36.29230957 6.82015991 37.26391602 C6.99318882 45.10415158 7.47307427 52.12616351 13.19921875 58.03125 C17.14794299 60.00561212 21.89538642 59.46954693 26.19921875 59.03125 C30.61959166 56.86124875 33.55789275 54.18190515 36.19921875 50.03125 C37.88332365 44.38771507 38.52244594 39.24262845 38.61328125 33.375 C38.6326474 32.58726196 38.65201355 31.79952393 38.67196655 30.98791504 C38.73115421 28.50246588 38.77790101 26.01696885 38.82421875 23.53125 C38.8624547 21.83331452 38.90150959 20.13539727 38.94140625 18.4375 C39.03680455 14.3022336 39.12105617 10.16687662 39.19921875 6.03125 C38.10609375 5.886875 37.01296875 5.7425 35.88671875 5.59375 C32.19921875 5.03125 32.19921875 5.03125 29.19921875 4.03125 C29.19921875 3.04125 29.19921875 2.05125 29.19921875 1.03125 C34.19921875 0.03125 34.19921875 0.03125 50.19921875 0.03125 C50.19921875 18.84125 50.19921875 37.65125 50.19921875 57.03125 C53.49921875 57.69125 56.79921875 58.35125 60.19921875 59.03125 C60.52921875 60.02125 60.85921875 61.01125 61.19921875 62.03125 C54.10216213 63.37620828 47.42667925 64.27216535 40.19921875 64.03125 C39.53921875 61.72125 38.87921875 59.41125 38.19921875 57.03125 C37.61914062 57.44117188 37.0390625 57.85109375 36.44140625 58.2734375 C35.66023437 58.81226563 34.8790625 59.35109375 34.07421875 59.90625 C33.30851563 60.43992187 32.5428125 60.97359375 31.75390625 61.5234375 C24.61351102 65.73779921 17.28466928 65.77887728 9.19921875 65.03125 C3.82005452 63.5049534 0.16800971 60.82698925 -2.80078125 56.03125 C-5.06046414 50.69642897 -5.14248521 45.73696596 -5.21484375 40.0390625 C-5.2342099 39.09312225 -5.25357605 38.14718201 -5.27352905 37.1725769 C-5.33305174 34.16722478 -5.37960071 31.16183379 -5.42578125 28.15625 C-5.46398617 26.11196296 -5.50303936 24.06769158 -5.54296875 22.0234375 C-5.63873079 17.0261697 -5.72286239 12.02882658 -5.80078125 7.03125 C-8.77078125 6.04125 -11.74078125 5.05125 -14.80078125 4.03125 C-14.80078125 3.04125 -14.80078125 2.05125 -14.80078125 1.03125 C-9.81834719 0.24969172 -5.0482137 -0.02544783 0 0 Z " fill="#929397" transform="translate(738.80078125,468.96875)"/>
<path d="M0 0 C0.495 0.495 0.495 0.495 1 1 C0.909084 3.70108504 0.76259234 6.36930311 0.5625 9.0625 C0.51029297 9.82111328 0.45808594 10.57972656 0.40429688 11.36132812 C0.27424165 13.24121722 0.13771962 15.12065685 0 17 C-1.32 17 -2.64 17 -4 17 C-4.15855469 16.32453125 -4.31710937 15.6490625 -4.48046875 14.953125 C-5.52290337 10.96768437 -6.47505917 7.71121015 -8.9375 4.375 C-13.89292178 2.15011675 -18.66855668 2.31908197 -24 3 C-29.66146675 5.2645867 -31.46756243 9.17170963 -33.921875 14.46484375 C-34.27765625 15.30144531 -34.6334375 16.13804687 -35 17 C-35.36867188 17.76441406 -35.73734375 18.52882813 -36.1171875 19.31640625 C-39.37919549 29.23233321 -37.56463577 42.85745918 -33 52 C-29.73087531 55.98981809 -26.26044325 58.60771787 -21.01953125 59.23828125 C-13.43528961 59.49332654 -8.33303252 57.1655804 -2.6875 52.1875 C-1.800625 51.465625 -0.91375 50.74375 0 50 C0.99 50.33 1.98 50.66 3 51 C2.16736856 56.41210434 -1.83054955 58.87291217 -6 62 C-12.50657037 66.03407363 -19.51743567 65.74159045 -27 65 C-34.63529503 63.1687707 -41.27218592 59.38916893 -45.46875 52.63671875 C-50.89996339 42.23215588 -53.13705834 31.20477756 -50.125 19.640625 C-46.26166178 9.62644566 -40.99912448 3.38313932 -31.234375 -1.08984375 C-21.30107398 -5.13610098 -9.93594019 -3.35838259 0 0 Z " fill="#959699" transform="translate(1056,470)"/>
<path d="M0 0 C3.63 0 7.26 0 11 0 C11 16.17 11 32.34 11 49 C12.65 49.33 14.3 49.66 16 50 C16 50.66 16 51.32 16 52 C12.37 52 8.74 52 5 52 C4.67 51.01 4.34 50.02 4 49 C3.38125 49.66 2.7625 50.32 2.125 51 C-2.25954125 53.8061064 -5.9264949 54.05105324 -11 53 C-15.76735683 50.37184175 -18.36184761 47.18363715 -20 42 C-20.69135949 35.83163677 -20.71093514 30.1953092 -17 25 C-13.01077679 20.72583228 -10.10862012 19.41839074 -4.34375 18.75 C-2 19 -2 19 4 22 C4.33 15.73 4.66 9.46 5 3 C2.525 2.505 2.525 2.505 0 2 C0 1.34 0 0.68 0 0 Z " fill="#9A9A9D" transform="translate(553,449)"/>
<path d="M0 0 C7.02393729 6.10777155 7.01017222 11.98689438 7.875 21.5 C-2.685 21.5 -13.245 21.5 -24.125 21.5 C-22.98177891 12.35423124 -21.35135746 6.49258912 -14.125 0.5 C-9.18664368 -2.15911494 -5.0832522 -2.43996105 0 0 Z " fill="#FBFBFB" transform="translate(976.125,472.5)"/>
<path d="M0 0 C5.0782876 2.24389452 7.97364413 5.74201708 10.25 10.75 C11 14 11 14 11 23 C0.77 23 -9.46 23 -20 23 C-20 15.37500278 -18.68314185 9.95329895 -13.40234375 4.28515625 C-8.81786531 0.39905045 -5.9887228 -0.40601511 0 0 Z " fill="#FBFBFB" transform="translate(834,471)"/>
<path d="M0 0 C3.63 0 7.26 0 11 0 C11.04898438 1.75828125 11.09796875 3.5165625 11.1484375 5.328125 C11.22347189 7.63543254 11.29901943 9.94272343 11.375 12.25 C11.4059375 13.40886719 11.436875 14.56773437 11.46875 15.76171875 C11.50742187 16.87675781 11.54609375 17.99179687 11.5859375 19.140625 C11.6173584 20.16704102 11.6487793 21.19345703 11.68115234 22.25097656 C11.99636625 24.96867073 12.61032351 26.66924435 14 29 C18.05984863 29.39802438 20.26939361 29.50122996 23.6875 27.15625 C27.00945163 22.62223494 26.7793216 18.67668235 26.8125 13.1875 C26.83763672 12.20845703 26.86277344 11.22941406 26.88867188 10.22070312 C26.94738663 7.81339803 26.9837798 5.40790438 27 3 C24.525 2.505 24.525 2.505 22 2 C22 1.34 22 0.68 22 0 C25.63 0 29.26 0 33 0 C33 9.57 33 19.14 33 29 C34.65 29.33 36.3 29.66 38 30 C37.67 30.66 37.34 31.32 37 32 C33.7 32 30.4 32 27 32 C27 31.01 27 30.02 27 29 C26.030625 29.66 25.06125 30.32 24.0625 31 C19.770882 33.4374301 15.84468907 33.92539005 11 33 C8.12970131 31.20606332 6.50868362 30.01736724 5 27 C4.91528636 25.18658158 4.89278917 23.37005839 4.90234375 21.5546875 C4.90556641 20.47832031 4.90878906 19.40195312 4.91210938 18.29296875 C4.92048828 17.16503906 4.92886719 16.03710938 4.9375 14.875 C4.94201172 13.73933594 4.94652344 12.60367187 4.95117188 11.43359375 C4.96298385 8.62234362 4.97945493 5.8111977 5 3 C3.35 2.67 1.7 2.34 0 2 C0 1.34 0 0.68 0 0 Z " fill="#98989C" transform="translate(571,469)"/>
<path d="M0 0 C3.00287228 2.12703453 3.75494588 2.71236861 5 6 C5.8386833 12.21219402 6.22529248 18.67347745 3.125 24.3125 C1 27 1 27 -1 28 C-7.24259681 28.57801822 -7.24259681 28.57801822 -10.375 26.1875 C-13.17722199 22.4152781 -13.16135841 19.19454993 -13.1875 14.625 C-13.20167969 13.50351562 -13.21585938 12.38203125 -13.23046875 11.2265625 C-12.95131689 7.31843642 -11.92766863 4.49457723 -9.875 1.1875 C-6.70702559 -0.81888379 -3.54232226 -0.79254292 0 0 Z " fill="#FDFDFD" transform="translate(553,471)"/>
<path d="M0 0 C3.81360406 1.49820159 5.53926661 3.80001267 8 7 C-5.28504109 20.46730537 -5.28504109 20.46730537 -11.4140625 25.6328125 C-13.02282407 27.01967592 -14.51665359 28.48069368 -16 30 C-16.99 29.67 -17.98 29.34 -19 29 C-17.73462626 25.54380179 -16.28395314 22.74420697 -14.1015625 19.78515625 C-13.53953125 19.01623047 -12.9775 18.24730469 -12.3984375 17.45507812 C-11.81320312 16.66552734 -11.22796875 15.87597656 -10.625 15.0625 C-9.4703567 13.4916181 -8.31668939 11.92001828 -7.1640625 10.34765625 C-6.62040039 9.60660645 -6.07673828 8.86555664 -5.51660156 8.10205078 C-3.60133195 5.4474353 -1.78705841 2.74221032 0 0 Z " fill="#959699" transform="translate(842,430)"/>
</svg>
